<svg id="Layer_1" enable-background="new 0 0 509.926 509.926" height="512" viewBox="0 0 509.926 509.926" width="512" xmlns="http://www.w3.org/2000/svg"><path d="m361.213 509.926h-212.5c-7.835 0-14.351-6.031-14.955-13.843l-24.399-315.457c-.322-4.167.038-22.123 2.877-25.189s6.829-4.811 11.008-4.811h263.439c4.18 0 8.169 1.744 11.008 4.811s3.199 21.022 2.877 25.189l-24.399 315.457c-.604 7.812-7.12 13.843-14.956 13.843z" fill="#fff04a"/><path d="m386.683 150.626h-131.72v359.3h106.25c7.836 0 14.352-6.031 14.955-13.843l24.399-315.457c.322-4.167-.038-22.123-2.877-25.189s-6.827-4.811-11.007-4.811z" fill="#ffda45"/><path d="m400.568 180.626h-291.209l-6.98-90.25h305.17z" fill="#414952"/><path d="m254.963 180.626h145.605l6.98-90.25h-152.585z" fill="#23272b"/><path d="m391.339 120.375h-272.752c-24.882 0-45.125-20.243-45.125-45.125s20.243-45.125 45.125-45.125h22.625l18.094-24.125c2.833-3.777 7.279-6 12-6h167.314c4.722 0 9.167 2.223 12 6l18.094 24.125h22.625c24.882 0 45.125 20.243 45.125 45.125s-20.243 45.125-45.125 45.125z" fill="#f2eee6"/><path d="m391.339 30.125h-22.625l-18.094-24.125c-2.833-3.777-7.278-6-12-6h-83.657v120.375h136.376c24.882 0 45.125-20.243 45.125-45.125s-20.243-45.125-45.125-45.125z" fill="#e8e4dc"/><path d="m129.153 436.543 4.605 59.54c.604 7.812 7.12 13.843 14.955 13.843h212.5c7.836 0 14.352-6.031 14.955-13.843l4.605-59.54-125.81-10z" fill="#fa5d0f"/><path d="m254.984 509.926h106.229c7.836 0 14.352-6.031 14.955-13.843l4.605-59.54h-125.789z" fill="#eb0404"/><path d="m380.773 436.543h-251.605l-9.283-120.375h270.199z" fill="#2864f0"/><path d="m254.963 436.543h125.81l9.311-120.375h-135.121z" fill="#0053bf"/></svg>