<?xml version="1.0" encoding="iso-8859-1"?>
<!-- Generator: Adobe Illustrator 19.0.0, SVG Export Plug-In . SVG Version: 6.00 Build 0)  -->
<svg version="1.1" id="Capa_1" xmlns="http://www.w3.org/2000/svg" xmlns:xlink="http://www.w3.org/1999/xlink" x="0px" y="0px"
	 viewBox="0 0 512 512" style="enable-background:new 0 0 512 512;" xml:space="preserve">
<g>
	<polygon style="fill:#F9D643;" points="398.454,237.159 358.409,174.884 320.562,207.253 355.981,276.222 	"/>
	<polygon style="fill:#F9D643;" points="113.545,237.159 153.59,174.884 191.436,207.253 156.018,276.222 	"/>
</g>
<polygon style="fill:#FFEB96;" points="504.5,430.466 437.579,201.175 355.982,276.222 256,81.534 156.018,276.222 74.421,201.175 
	7.5,430.466 "/>
<g>
	<polygon style="fill:#FFE269;" points="504.5,430.469 474.437,430.469 413.875,222.981 437.58,201.179 	"/>
	<polygon style="fill:#FFE269;" points="355.962,276.222 335.539,295.005 240.974,110.797 256,81.53 	"/>
</g>
<polygon style="fill:#63CEC1;" points="256,217.909 213.306,288.041 256,358.174 298.694,288.041 "/>
<polygon style="fill:#5BBAAC;" points="298.693,288.042 256,358.172 243.105,336.982 272.887,288.042 243.105,239.103 256,217.912 
	"/>
<polygon style="fill:#63CEC1;" points="413.875,274.873 386.047,320.585 413.875,366.298 441.703,320.585 "/>
<polygon style="fill:#5BBAAC;" points="441.702,320.586 413.875,366.297 405.47,352.485 424.882,320.586 405.47,288.687 
	413.875,274.875 "/>
<polygon style="fill:#63CEC1;" points="96.097,274.873 68.27,320.585 96.097,366.298 123.925,320.585 "/>
<polygon style="fill:#5BBAAC;" points="123.924,320.586 96.098,366.297 87.692,352.485 107.105,320.586 87.692,288.687 
	96.098,274.875 "/>
<path d="M511.7,428.365l-47.059-161.237c-1.161-3.976-5.326-6.258-9.301-5.098c-3.977,1.16-6.259,5.324-5.099,9.301l34.965,119.802
	H171.5c-4.142,0-7.5,3.357-7.5,7.5s3.358,7.5,7.5,7.5h318.085l4.913,16.834H17.502l4.913-16.834H136c4.142,0,7.5-3.357,7.5-7.5
	s-3.358-7.5-7.5-7.5H26.793l51.442-176.259l72.705,66.869c1.724,1.585,4.087,2.275,6.393,1.863c2.305-0.411,4.286-1.875,5.356-3.958
	l54.328-105.789c1.892-3.685,0.439-8.205-3.246-10.098c-3.684-1.89-8.205-0.44-10.098,3.246L189.1,195.386l-30.635-26.202
	c-1.647-1.409-3.82-2.036-5.965-1.721c-2.144,0.314-4.046,1.541-5.218,3.363l-35.223,54.776l-32.562-29.948
	c-1.909-1.755-4.59-2.403-7.089-1.704c-2.499,0.695-4.461,2.633-5.188,5.123L9.632,396.393c-0.003,0.009-0.005,0.019-0.008,0.028
	L0.3,428.365c-0.661,2.267-0.217,4.712,1.199,6.601c1.417,1.89,3.64,3.001,6,3.001h497c2.361,0,4.584-1.111,6-3.001
	C511.917,433.077,512.361,430.631,511.7,428.365z M155.249,186.17l26.808,22.929l-28.212,54.935l-30.58-28.125L155.249,186.17z"/>
<path d="M221.265,149.17c3.686,1.891,8.206,0.439,10.098-3.246L256,97.951l93.311,181.697c1.07,2.083,3.051,3.547,5.356,3.958
	c0.438,0.078,0.878,0.116,1.316,0.116c1.865,0,3.682-0.696,5.077-1.979l72.705-66.869l7.117,24.387
	c1.161,3.977,5.328,6.263,9.301,5.098c3.977-1.16,6.259-5.324,5.099-9.301l-10.502-35.983c-0.727-2.49-2.688-4.428-5.188-5.123
	c-2.5-0.699-5.18-0.051-7.089,1.704l-32.563,29.949l-35.223-54.777c-1.171-1.822-3.074-3.049-5.218-3.363
	c-2.146-0.315-4.319,0.312-5.965,1.721L322.9,195.385L262.672,78.108c-1.285-2.502-3.86-4.074-6.672-4.074s-5.387,1.572-6.672,4.074
	l-31.309,60.965C216.127,142.757,217.581,147.278,221.265,149.17z M356.75,186.171l31.984,49.739l-30.579,28.124l-28.212-54.935
	L356.75,186.171z"/>
<path d="M256,210.41c-2.617,0-5.045,1.364-6.406,3.6L206.9,284.141c-1.458,2.396-1.458,5.405,0,7.801l42.694,70.132
	c1.361,2.236,3.789,3.601,6.406,3.601s5.045-1.364,6.406-3.601l42.694-70.132c1.458-2.396,1.458-5.405,0-7.801l-42.694-70.132
	C261.045,211.774,258.617,210.41,256,210.41z M256,343.751l-33.914-55.709L256,232.333l33.914,55.709L256,343.751z"/>
<path d="M413.875,267.373c-2.617,0-5.045,1.364-6.406,3.601l-27.828,45.713c-1.458,2.396-1.458,5.404,0,7.8l27.828,45.712
	c1.361,2.235,3.789,3.6,6.406,3.6s5.045-1.364,6.406-3.6l27.828-45.712c1.458-2.396,1.458-5.405,0-7.801l-27.828-45.713
	C418.92,268.737,416.492,267.373,413.875,267.373z M413.875,351.875l-19.047-31.289l19.047-31.289l19.048,31.289L413.875,351.875z"
	/>
<path d="M96.098,267.373c-2.617,0-5.045,1.364-6.406,3.6l-27.828,45.713c-1.458,2.396-1.458,5.405,0,7.801l27.828,45.712
	c1.361,2.235,3.789,3.6,6.406,3.6s5.045-1.364,6.406-3.6l27.828-45.712c1.458-2.396,1.458-5.404,0-7.8l-27.828-45.713
	C101.143,268.737,98.715,267.373,96.098,267.373z M96.098,351.875l-19.048-31.29l19.048-31.289l19.047,31.289L96.098,351.875z"/>
<g>
</g>
<g>
</g>
<g>
</g>
<g>
</g>
<g>
</g>
<g>
</g>
<g>
</g>
<g>
</g>
<g>
</g>
<g>
</g>
<g>
</g>
<g>
</g>
<g>
</g>
<g>
</g>
<g>
</g>
</svg>
