<?xml version="1.0" encoding="iso-8859-1"?>
<!-- Generator: Adobe Illustrator 17.1.0, SVG Export Plug-In . SVG Version: 6.00 Build 0)  -->
<!DOCTYPE svg PUBLIC "-//W3C//DTD SVG 1.1//EN" "http://www.w3.org/Graphics/SVG/1.1/DTD/svg11.dtd">
<svg version="1.1" id="Capa_1" xmlns="http://www.w3.org/2000/svg" xmlns:xlink="http://www.w3.org/1999/xlink" x="0px" y="0px"
	 viewBox="0 0 247.301 247.301" style="enable-background:new 0 0 247.301 247.301;" xml:space="preserve">
<path d="M247,223.918V23.107c0-2.936-1.432-5.602-4.103-6.822c-2.669-1.218-5.666-0.769-7.886,1.152l-70.524,61.137l-34.092-59.212
	c-1.339-2.323-3.799-3.755-6.48-3.755s-5.15,1.432-6.489,3.755L83.304,78.573l-70.59-61.136c-2.221-1.922-5.509-2.37-8.178-1.152
	C1.865,17.505,0,20.171,0,23.107v201.142c0,0.083,0.163,0.164,0.165,0.246c0.003,0.086,0.084,0.171,0.089,0.257
	c0.047,0.707,0.23,1.386,0.459,2.026c0.011,0.03,0.034,0.061,0.045,0.091c0.01,0.025,0.034,0.048,0.043,0.073
	c0.126,0.328,0.276,0.647,0.446,0.952c0.018,0.032,0.041,0.063,0.06,0.095c0.156,0.271,0.331,0.53,0.519,0.778
	c0.039,0.052,0.076,0.104,0.116,0.155c0.204,0.256,0.425,0.497,0.66,0.724c0.05,0.048,0.102,0.093,0.154,0.14
	c0.222,0.203,0.455,0.393,0.701,0.569c0.033,0.023,0.064,0.049,0.097,0.072c0.275,0.19,0.566,0.358,0.866,0.51
	c0.057,0.029,0.114,0.055,0.171,0.083c0.304,0.145,0.617,0.276,0.942,0.379c0.002,0.001,0.004,0.002,0.007,0.002
	c0.324,0.102,0.659,0.177,1.001,0.235c0.074,0.013,0.149-0.004,0.224,0.007c0.341,0.047,0.686,0.053,1.039,0.053h0.198h231.857
	c0.007,0,0.015,0,0.015,0h0.187c0.008,0,0.014,0,0.014,0c4.148,0,7.225-3.33,7.225-7.473C247.301,224.109,247,224.029,247,223.918z
	 M232,39.524v157.041L171.624,91.811L232,39.524z M75.374,91.809L15,196.56V39.524L75.374,91.809z"/>
<g>
</g>
<g>
</g>
<g>
</g>
<g>
</g>
<g>
</g>
<g>
</g>
<g>
</g>
<g>
</g>
<g>
</g>
<g>
</g>
<g>
</g>
<g>
</g>
<g>
</g>
<g>
</g>
<g>
</g>
</svg>
